<svg width="44" height="44" viewBox="0 0 44 44" fill="none" xmlns="http://www.w3.org/2000/svg">
<path d="M42 31.84V37.84C42.0022 38.397 41.8882 38.9483 41.665 39.4587C41.4419 39.9691 41.1146 40.4272 40.7041 40.8037C40.2937 41.1803 39.8091 41.467 39.2815 41.6454C38.7538 41.8239 38.1947 41.8901 37.64 41.84C31.4857 41.1713 25.574 39.0683 20.38 35.7C15.5476 32.6293 11.4507 28.5323 8.37999 23.7C4.99994 18.4824 2.89647 12.542 2.23999 6.36C2.19001 5.80694 2.25574 5.24952 2.43299 4.72325C2.61024 4.19698 2.89513 3.71338 3.26952 3.30325C3.64391 2.89311 4.0996 2.56542 4.60757 2.34105C5.11554 2.11667 5.66467 2.00053 6.21999 2H12.22C13.1906 1.99045 14.1316 2.33416 14.8675 2.96707C15.6035 3.59998 16.0841 4.4789 16.22 5.44C16.4732 7.36014 16.9429 9.24546 17.62 11.06C17.8891 11.7759 17.9473 12.5538 17.7878 13.3018C17.6283 14.0497 17.2577 14.7362 16.72 15.28L14.18 17.82C17.0271 22.8271 21.1729 26.9729 26.18 29.82L28.72 27.28C29.2638 26.7423 29.9503 26.3717 30.6982 26.2122C31.4462 26.0527 32.2241 26.1109 32.94 26.38C34.7545 27.0571 36.6399 27.5268 38.56 27.78C39.5315 27.9171 40.4188 28.4064 41.0531 29.155C41.6873 29.9036 42.0243 30.8592 42 31.84Z" stroke="#FEE9E7" stroke-width="4" stroke-linecap="round" stroke-linejoin="round"/>
</svg>
