<svg width="48" height="48" viewBox="0 0 48 48" fill="none" xmlns="http://www.w3.org/2000/svg">
<g clip-path="url(#clip0_9_104)">
<g filter="url(#filter0_d_9_104)">
<path d="M28 4H12C10.9391 4 9.92172 4.42143 9.17157 5.17157C8.42143 5.92172 8 6.93913 8 8V40C8 41.0609 8.42143 42.0783 9.17157 42.8284C9.92172 43.5786 10.9391 44 12 44H36C37.0609 44 38.0783 43.5786 38.8284 42.8284C39.5786 42.0783 40 41.0609 40 40V16M28 4L40 16M28 4V16H40M32 26H16M32 34H16M20 18H16" stroke="#FEE9E7" stroke-width="4" stroke-linecap="round" stroke-linejoin="round" shape-rendering="crispEdges"/>
</g>
</g>
<defs>
<filter id="filter0_d_9_104" x="2" y="2" width="44" height="56" filterUnits="userSpaceOnUse" color-interpolation-filters="sRGB">
<feFlood flood-opacity="0" result="BackgroundImageFix"/>
<feColorMatrix in="SourceAlpha" type="matrix" values="0 0 0 0 0 0 0 0 0 0 0 0 0 0 0 0 0 0 127 0" result="hardAlpha"/>
<feOffset dy="8"/>
<feGaussianBlur stdDeviation="2"/>
<feComposite in2="hardAlpha" operator="out"/>
<feColorMatrix type="matrix" values="0 0 0 0 0 0 0 0 0 0 0 0 0 0 0 0 0 0 0.25 0"/>
<feBlend mode="normal" in2="BackgroundImageFix" result="effect1_dropShadow_9_104"/>
<feBlend mode="normal" in="SourceGraphic" in2="effect1_dropShadow_9_104" result="shape"/>
</filter>
<clipPath id="clip0_9_104">
<rect width="48" height="48" fill="white"/>
</clipPath>
</defs>
</svg>
